<?xml version="1.0" encoding="utf-8"?>
<!-- Generator: Adobe Illustrator 28.0.0, SVG Export Plug-In . SVG Version: 6.00 Build 0)  -->
<svg version="1.1" id="Слой_1" xmlns="http://www.w3.org/2000/svg" xmlns:xlink="http://www.w3.org/1999/xlink" x="0px" y="0px"
	 viewBox="0 0 989.0768433 1000" enable-background="new 0 0 989.0768433 1000" xml:space="preserve">
<linearGradient id="path1948_00000021806343097180636630000002395359987504192651_" gradientUnits="userSpaceOnUse" x1="-382.326355" y1="1083.8586426" x2="587.6646729" y2="249.3117371" gradientTransform="matrix(0.562541 0 0 -0.567972 190.8097687 644.0761719)">
	<stop  offset="0" style="stop-color:#5A9FD4"/>
	<stop  offset="1" style="stop-color:#306998"/>
</linearGradient>
<path id="path1948" fill="url(#path1948_00000021806343097180636630000002395359987504192651_)" d="M488.6491089,0.0081795
	c-40.7838135,0.1895019-79.7314453,3.6677756-114.0013733,9.7318239
	c-100.954834,17.8354053-119.284317,55.1664505-119.2843628,124.0112457v90.9230347h238.5687256v30.3076935H255.3633728h-89.5327606
	c-69.3347168,0-130.0461884,41.6741791-149.0359497,120.9526825c-21.9044552,90.871582-22.8760376,147.5768738,0,242.4614563
	c16.9583187,70.6283569,57.457077,120.9526367,126.7917786,120.9526367h82.0253754V630.352356
	c0-78.7434692,68.1307373-148.2017517,149.0359192-148.2017822h238.2906799
	c66.3317261,0,119.2844238-54.6153564,119.2843628-121.2307434V133.7512512
	c0-64.6534729-54.5425415-113.2208405-119.2843628-124.0112457C571.9558716,2.9179347,529.4329834-0.1813267,488.6491089,0.0081795z
	 M359.6329346,73.1358871c24.6424866,0,44.7663879,20.4525909,44.7663879,45.6005402
	c0,25.0588455-20.1239014,45.3225021-44.7663879,45.3225021c-24.7308655,0-44.7663879-20.2636719-44.7663879-45.3225021
	C314.8665466,93.5884933,334.9020691,73.1358871,359.6329346,73.1358871z"/>
<linearGradient id="path1950_00000041270209992770825530000016654893656952637843_" gradientUnits="userSpaceOnUse" x1="962.6695557" y1="-255.7909088" x2="616.2863159" y2="234.2816925" gradientTransform="matrix(0.562541 0 0 -0.567972 190.8097687 644.0761719)">
	<stop  offset="0" style="stop-color:#FFD43B"/>
	<stop  offset="1" style="stop-color:#FFE873"/>
</linearGradient>
<path id="path1950" fill="url(#path1950_00000041270209992770825530000016654893656952637843_)" d="M761.9743652,254.9819794
	v105.937851c0,82.1322021-69.6322632,151.2603455-149.0359497,151.2603455H374.6477356
	c-65.2717896,0-119.284317,55.8638306-119.2843628,121.2307739v227.1685791
	c0,64.6534424,56.2207031,102.6819458,119.2843628,121.2307129c75.5174561,22.2050781,147.9347229,26.2180786,238.2906799,0
	c60.0606079-17.3895264,119.2844238-52.3859863,119.2843628-121.2307129v-90.9230347H493.9320984v-30.3077393h238.2906799
	h119.2844238c69.3347168,0,95.1716919-48.3624268,119.2842407-120.9526367
	c24.9075317-74.7305298,23.8477173-146.5960083,0-242.4614563
	c-17.1348877-69.0231323-49.8613281-120.9526825-119.2842407-120.9526825H761.9743652z M627.9532471,830.2718506
	c24.730896,0.000061,44.7663574,20.2637329,44.7663574,45.3224487c0,25.1479492-20.0354614,45.6005859-44.7663574,45.6005859
	c-24.6425171,0-44.7664185-20.4526367-44.7664185-45.6005859
	C583.1868286,850.5355835,603.3106689,830.2718506,627.9532471,830.2718506z"/>
</svg>
